<mxfile host="app.diagrams.net" modified="2024-03-05T16:04:51.659Z" agent="Mozilla/5.0 (Windows NT 10.0; Win64; x64) AppleWebKit/537.36 (KHTML, like Gecko) Chrome/122.0.0.0 Safari/537.36" etag="tYgMs34Dv1geB5iDQcsU" version="24.0.1" type="device">
  <diagram name="Страница — 1" id="WIzzweuHhHE30qaovHEv">
    <mxGraphModel dx="1050" dy="565" grid="1" gridSize="10" guides="1" tooltips="1" connect="1" arrows="1" fold="1" page="1" pageScale="1" pageWidth="700" pageHeight="600" math="0" shadow="0">
      <root>
        <mxCell id="0" />
        <mxCell id="1" parent="0" />
        <mxCell id="KeEquThitEQyuTFf6_Cz-1" value="Пассажир" style="shape=umlActor;verticalLabelPosition=bottom;verticalAlign=top;html=1;fontFamily=Georgia;" parent="1" vertex="1">
          <mxGeometry x="40" y="43" width="40" height="80" as="geometry" />
        </mxCell>
        <mxCell id="KeEquThitEQyuTFf6_Cz-2" value="Оператор" style="shape=umlActor;verticalLabelPosition=bottom;verticalAlign=top;html=1;fontFamily=Georgia;" parent="1" vertex="1">
          <mxGeometry x="580" y="283" width="40" height="80" as="geometry" />
        </mxCell>
        <mxCell id="aGjq1VeNTNSCP7T2n2wK-6" style="edgeStyle=orthogonalEdgeStyle;rounded=0;orthogonalLoop=1;jettySize=auto;html=1;entryX=0.5;entryY=0;entryDx=0;entryDy=0;fontFamily=Georgia;" edge="1" parent="1" source="KeEquThitEQyuTFf6_Cz-7" target="KeEquThitEQyuTFf6_Cz-13">
          <mxGeometry relative="1" as="geometry" />
        </mxCell>
        <mxCell id="aGjq1VeNTNSCP7T2n2wK-8" value="uses" style="edgeLabel;html=1;align=center;verticalAlign=middle;resizable=0;points=[];fontFamily=Georgia;" vertex="1" connectable="0" parent="aGjq1VeNTNSCP7T2n2wK-6">
          <mxGeometry x="0.2067" relative="1" as="geometry">
            <mxPoint y="-6" as="offset" />
          </mxGeometry>
        </mxCell>
        <mxCell id="KeEquThitEQyuTFf6_Cz-7" value="&lt;font style=&quot;font-size: 13px;&quot;&gt;Сканирование багажа&lt;/font&gt;" style="ellipse;whiteSpace=wrap;html=1;fontFamily=Georgia;" parent="1" vertex="1">
          <mxGeometry x="120" y="40" width="100" height="60" as="geometry" />
        </mxCell>
        <mxCell id="aGjq1VeNTNSCP7T2n2wK-16" style="edgeStyle=orthogonalEdgeStyle;rounded=0;orthogonalLoop=1;jettySize=auto;html=1;entryX=0.5;entryY=0;entryDx=0;entryDy=0;fontFamily=Georgia;" edge="1" parent="1" source="KeEquThitEQyuTFf6_Cz-13" target="aGjq1VeNTNSCP7T2n2wK-22">
          <mxGeometry relative="1" as="geometry" />
        </mxCell>
        <mxCell id="aGjq1VeNTNSCP7T2n2wK-17" value="uses" style="edgeLabel;html=1;align=center;verticalAlign=middle;resizable=0;points=[];fontFamily=Georgia;" vertex="1" connectable="0" parent="aGjq1VeNTNSCP7T2n2wK-16">
          <mxGeometry x="-0.0517" relative="1" as="geometry">
            <mxPoint as="offset" />
          </mxGeometry>
        </mxCell>
        <mxCell id="KeEquThitEQyuTFf6_Cz-13" value="Определение наличия опасных предметов" style="ellipse;whiteSpace=wrap;html=1;fontSize=11;fontFamily=Georgia;" parent="1" vertex="1">
          <mxGeometry x="120" y="160" width="100" height="60" as="geometry" />
        </mxCell>
        <mxCell id="KeEquThitEQyuTFf6_Cz-17" value="" style="endArrow=none;html=1;edgeStyle=orthogonalEdgeStyle;rounded=0;exitX=1;exitY=0.3333333333333333;exitDx=0;exitDy=0;exitPerimeter=0;entryX=0;entryY=0.5;entryDx=0;entryDy=0;fontFamily=Georgia;fontStyle=0" parent="1" source="KeEquThitEQyuTFf6_Cz-1" target="KeEquThitEQyuTFf6_Cz-7" edge="1">
          <mxGeometry relative="1" as="geometry">
            <mxPoint x="220" y="180" as="sourcePoint" />
            <mxPoint x="380" y="180" as="targetPoint" />
          </mxGeometry>
        </mxCell>
        <mxCell id="KeEquThitEQyuTFf6_Cz-18" value="*" style="edgeLabel;resizable=0;html=1;align=left;verticalAlign=bottom;fontFamily=Georgia;fontStyle=1" parent="KeEquThitEQyuTFf6_Cz-17" connectable="0" vertex="1">
          <mxGeometry x="-1" relative="1" as="geometry" />
        </mxCell>
        <mxCell id="KeEquThitEQyuTFf6_Cz-19" value="*" style="edgeLabel;resizable=0;html=1;align=right;verticalAlign=bottom;fontFamily=Georgia;fontStyle=1" parent="KeEquThitEQyuTFf6_Cz-17" connectable="0" vertex="1">
          <mxGeometry x="1" relative="1" as="geometry" />
        </mxCell>
        <mxCell id="KeEquThitEQyuTFf6_Cz-21" value="" style="endArrow=none;html=1;edgeStyle=orthogonalEdgeStyle;rounded=0;entryX=0;entryY=0.3333333333333333;entryDx=0;entryDy=0;entryPerimeter=0;exitX=1;exitY=0.5;exitDx=0;exitDy=0;fontFamily=Georgia;" parent="1" source="aGjq1VeNTNSCP7T2n2wK-19" target="KeEquThitEQyuTFf6_Cz-2" edge="1">
          <mxGeometry relative="1" as="geometry">
            <mxPoint x="610" y="220" as="sourcePoint" />
            <mxPoint x="510" y="500" as="targetPoint" />
          </mxGeometry>
        </mxCell>
        <mxCell id="KeEquThitEQyuTFf6_Cz-22" value="*" style="edgeLabel;resizable=0;html=1;align=left;verticalAlign=bottom;fontFamily=Georgia;fontStyle=1" parent="KeEquThitEQyuTFf6_Cz-21" connectable="0" vertex="1">
          <mxGeometry x="-1" relative="1" as="geometry" />
        </mxCell>
        <mxCell id="KeEquThitEQyuTFf6_Cz-23" value="*" style="edgeLabel;resizable=0;html=1;align=right;verticalAlign=bottom;fontFamily=Georgia;" parent="KeEquThitEQyuTFf6_Cz-21" connectable="0" vertex="1">
          <mxGeometry x="1" relative="1" as="geometry" />
        </mxCell>
        <mxCell id="aGjq1VeNTNSCP7T2n2wK-9" style="edgeStyle=orthogonalEdgeStyle;rounded=0;orthogonalLoop=1;jettySize=auto;html=1;entryX=1;entryY=0.5;entryDx=0;entryDy=0;fontFamily=Georgia;" edge="1" parent="1" source="aGjq1VeNTNSCP7T2n2wK-7" target="aGjq1VeNTNSCP7T2n2wK-22">
          <mxGeometry relative="1" as="geometry" />
        </mxCell>
        <mxCell id="aGjq1VeNTNSCP7T2n2wK-10" value="extends" style="edgeLabel;html=1;align=center;verticalAlign=middle;resizable=0;points=[];fontFamily=Georgia;" vertex="1" connectable="0" parent="aGjq1VeNTNSCP7T2n2wK-9">
          <mxGeometry x="0.1048" relative="1" as="geometry">
            <mxPoint x="7" as="offset" />
          </mxGeometry>
        </mxCell>
        <mxCell id="aGjq1VeNTNSCP7T2n2wK-7" value="Дополнительный досмотр багажа" style="ellipse;whiteSpace=wrap;html=1;fontSize=11;fontFamily=Georgia;" vertex="1" parent="1">
          <mxGeometry x="280" y="280" width="100" height="60" as="geometry" />
        </mxCell>
        <mxCell id="aGjq1VeNTNSCP7T2n2wK-12" value="Предоставление доступа" style="ellipse;whiteSpace=wrap;html=1;fontSize=11;fontFamily=Georgia;" vertex="1" parent="1">
          <mxGeometry x="120" y="400" width="100" height="60" as="geometry" />
        </mxCell>
        <mxCell id="aGjq1VeNTNSCP7T2n2wK-14" style="edgeStyle=orthogonalEdgeStyle;rounded=0;orthogonalLoop=1;jettySize=auto;html=1;entryX=1;entryY=0.5;entryDx=0;entryDy=0;fontFamily=Georgia;" edge="1" parent="1" source="aGjq1VeNTNSCP7T2n2wK-13" target="aGjq1VeNTNSCP7T2n2wK-12">
          <mxGeometry relative="1" as="geometry" />
        </mxCell>
        <mxCell id="aGjq1VeNTNSCP7T2n2wK-15" value="extends" style="edgeLabel;html=1;align=center;verticalAlign=middle;resizable=0;points=[];fontFamily=Georgia;" vertex="1" connectable="0" parent="aGjq1VeNTNSCP7T2n2wK-14">
          <mxGeometry x="-0.0759" y="2" relative="1" as="geometry">
            <mxPoint x="1" y="-2" as="offset" />
          </mxGeometry>
        </mxCell>
        <mxCell id="aGjq1VeNTNSCP7T2n2wK-13" value="Отказ в доступе" style="ellipse;whiteSpace=wrap;html=1;fontSize=15;fontFamily=Georgia;" vertex="1" parent="1">
          <mxGeometry x="280" y="400" width="100" height="60" as="geometry" />
        </mxCell>
        <mxCell id="aGjq1VeNTNSCP7T2n2wK-20" style="edgeStyle=orthogonalEdgeStyle;rounded=0;orthogonalLoop=1;jettySize=auto;html=1;entryX=1;entryY=0.5;entryDx=0;entryDy=0;fontFamily=Georgia;" edge="1" parent="1" source="aGjq1VeNTNSCP7T2n2wK-19" target="aGjq1VeNTNSCP7T2n2wK-7">
          <mxGeometry relative="1" as="geometry" />
        </mxCell>
        <mxCell id="aGjq1VeNTNSCP7T2n2wK-21" value="uses" style="edgeLabel;html=1;align=center;verticalAlign=middle;resizable=0;points=[];fontFamily=Georgia;" vertex="1" connectable="0" parent="aGjq1VeNTNSCP7T2n2wK-20">
          <mxGeometry x="-0.1962" y="1" relative="1" as="geometry">
            <mxPoint as="offset" />
          </mxGeometry>
        </mxCell>
        <mxCell id="aGjq1VeNTNSCP7T2n2wK-19" value="Оповещение об опасности" style="ellipse;whiteSpace=wrap;html=1;fontSize=12;fontFamily=Georgia;" vertex="1" parent="1">
          <mxGeometry x="440" y="280" width="100" height="60" as="geometry" />
        </mxCell>
        <mxCell id="aGjq1VeNTNSCP7T2n2wK-23" style="edgeStyle=orthogonalEdgeStyle;rounded=0;orthogonalLoop=1;jettySize=auto;html=1;entryX=0.5;entryY=0;entryDx=0;entryDy=0;fontFamily=Georgia;" edge="1" parent="1" source="aGjq1VeNTNSCP7T2n2wK-22" target="aGjq1VeNTNSCP7T2n2wK-12">
          <mxGeometry relative="1" as="geometry" />
        </mxCell>
        <mxCell id="aGjq1VeNTNSCP7T2n2wK-27" value="uses" style="edgeLabel;html=1;align=center;verticalAlign=middle;resizable=0;points=[];fontFamily=Georgia;" vertex="1" connectable="0" parent="aGjq1VeNTNSCP7T2n2wK-23">
          <mxGeometry x="-0.0829" y="-1" relative="1" as="geometry">
            <mxPoint as="offset" />
          </mxGeometry>
        </mxCell>
        <mxCell id="aGjq1VeNTNSCP7T2n2wK-22" value="Обнаружение опасных предметов" style="ellipse;whiteSpace=wrap;html=1;fontSize=10;fontFamily=Georgia;" vertex="1" parent="1">
          <mxGeometry x="120" y="280" width="100" height="60" as="geometry" />
        </mxCell>
        <mxCell id="aGjq1VeNTNSCP7T2n2wK-24" value="" style="endArrow=none;html=1;edgeStyle=orthogonalEdgeStyle;rounded=0;exitX=0.5;exitY=1;exitDx=0;exitDy=0;fontFamily=Georgia;" edge="1" parent="1" source="aGjq1VeNTNSCP7T2n2wK-12">
          <mxGeometry relative="1" as="geometry">
            <mxPoint x="550" y="320" as="sourcePoint" />
            <mxPoint x="580" y="310" as="targetPoint" />
            <Array as="points">
              <mxPoint x="170" y="490" />
              <mxPoint x="560" y="490" />
              <mxPoint x="560" y="310" />
            </Array>
          </mxGeometry>
        </mxCell>
        <mxCell id="aGjq1VeNTNSCP7T2n2wK-25" value="*" style="edgeLabel;resizable=0;html=1;align=left;verticalAlign=bottom;fontFamily=Georgia;fontStyle=1" connectable="0" vertex="1" parent="aGjq1VeNTNSCP7T2n2wK-24">
          <mxGeometry x="-1" relative="1" as="geometry">
            <mxPoint y="20" as="offset" />
          </mxGeometry>
        </mxCell>
        <mxCell id="aGjq1VeNTNSCP7T2n2wK-26" value="*" style="edgeLabel;resizable=0;html=1;align=right;verticalAlign=bottom;fontFamily=Georgia;fontStyle=1" connectable="0" vertex="1" parent="aGjq1VeNTNSCP7T2n2wK-24">
          <mxGeometry x="1" relative="1" as="geometry" />
        </mxCell>
      </root>
    </mxGraphModel>
  </diagram>
</mxfile>
